# xmcd
#
# Track frame offsets: 
#        150
#        24835
#        49109
#        84571
#        100795
#        118641
#        163638
#        192356
#
# Disc length: 2782 seconds
#
# Revision: 0
# Processed by: cddbd v1.5.2PL0 Copyright (c) Steve Scherf et al.
# Submitted via: ExactAudioCopy v1.3
#
DISCID=5a0adc08
DTITLE=Yaw Kyei - Riverside Blues
DYEAR=2019
DGENRE=Blues
TTITLE0=Definitely
TTITLE1=Little Bird
TTITLE2=Pure Imagination (Live)
TTITLE3=L.O.V.E.
TTITLE4=East of the Sun and West of the Moon (Live)
TTITLE5=Five Lives
TTITLE6=Muddy Puddles
TTITLE7=Deluge (Live)
EXTD=
EXTT0=
EXTT1=
EXTT2=
EXTT3=
EXTT4=
EXTT5=
EXTT6=
EXTT7=
PLAYORDER=
